<?xml version="1.0" standalone="no"?>
<!DOCTYPE svg PUBLIC "-//W3C//DTD SVG 20010904//EN"
 "http://www.w3.org/TR/2001/REC-SVG-20010904/DTD/svg10.dtd">
<svg version="1.0" xmlns="http://www.w3.org/2000/svg"
 width="900.000000pt" height="900.000000pt" viewBox="0 0 900.000000 900.000000"
 preserveAspectRatio="xMidYMid meet">
 <style>
    path {
        fill: #000;
    }
    @media (prefers-color-scheme: dark) {
        path {
            fill: #fff;
        }
    }
</style>
<g transform="translate(0.000000,900.000000) scale(0.100000,-0.100000)"
fill="currentColor" stroke="none">
<path d="M4410 8015 c-14 -8 -48 -14 -76 -15 -33 0 -56 -5 -64 -15 -7 -8 -23
-15 -35 -15 -12 0 -28 -7 -35 -15 -7 -8 -25 -15 -39 -15 -15 0 -36 -7 -47 -15
-10 -8 -35 -15 -55 -15 -20 0 -42 -7 -49 -15 -7 -8 -20 -15 -29 -15 -10 0 -26
-7 -37 -15 -10 -8 -25 -15 -33 -15 -7 0 -30 -12 -50 -27 -20 -16 -54 -37 -76
-48 -22 -11 -44 -25 -48 -32 -4 -7 -16 -13 -26 -13 -10 0 -24 -7 -31 -15 -7
-8 -20 -15 -29 -15 -9 0 -33 -15 -53 -33 -20 -17 -64 -56 -97 -85 -34 -29 -61
-60 -61 -67 0 -8 -13 -21 -29 -30 -17 -8 -51 -43 -78 -77 -26 -35 -57 -72 -68
-83 -11 -11 -33 -39 -50 -63 -16 -24 -39 -53 -52 -65 -12 -12 -23 -28 -23 -35
0 -8 -20 -40 -45 -72 -25 -33 -54 -76 -63 -97 -10 -21 -30 -57 -45 -80 -15
-24 -27 -51 -27 -62 0 -10 -7 -24 -15 -31 -8 -7 -15 -23 -15 -36 0 -12 -4 -25
-9 -28 -13 -9 -51 -84 -51 -104 0 -9 -7 -26 -15 -36 -8 -11 -15 -34 -15 -52 0
-17 -7 -37 -15 -44 -8 -7 -15 -29 -15 -49 -1 -20 -7 -47 -15 -61 -8 -14 -14
-36 -15 -50 0 -15 -5 -31 -11 -37 -6 -6 -15 -29 -19 -50 -5 -21 -18 -63 -30
-93 -12 -30 -24 -65 -27 -77 -3 -12 -11 -28 -19 -34 -8 -6 -14 -24 -14 -39 0
-15 -7 -33 -15 -40 -8 -7 -15 -25 -15 -40 0 -16 -11 -38 -30 -56 -16 -16 -30
-34 -30 -40 0 -5 -13 -23 -30 -39 -16 -16 -30 -34 -30 -41 0 -7 -6 -17 -13
-21 -24 -15 -77 -91 -77 -111 0 -11 -7 -25 -15 -32 -22 -19 -22 -508 0 -516
10 -4 15 -20 15 -50 0 -31 8 -55 30 -87 17 -25 30 -53 30 -63 0 -11 7 -28 15
-38 8 -11 15 -30 15 -42 0 -12 7 -27 15 -34 8 -7 15 -25 15 -40 0 -15 7 -33
15 -40 8 -7 15 -27 15 -45 0 -18 7 -38 15 -45 8 -7 15 -17 15 -22 0 -12 60
-90 77 -101 7 -4 13 -14 13 -21 0 -14 78 -99 278 -305 100 -102 140 -152 163
-199 17 -35 29 -66 25 -69 -3 -3 -30 -5 -59 -4 -33 1 -60 -4 -72 -13 -11 -9
-36 -16 -56 -16 -20 0 -42 -7 -49 -15 -7 -8 -25 -15 -39 -15 -15 0 -36 -7 -47
-15 -10 -8 -33 -15 -50 -15 -17 0 -37 -7 -44 -15 -7 -8 -20 -15 -30 -15 -10 0
-20 -7 -24 -15 -3 -8 -16 -15 -28 -15 -13 0 -47 -14 -77 -30 -30 -17 -62 -30
-71 -30 -10 0 -23 -7 -30 -15 -7 -8 -19 -15 -27 -15 -8 0 -32 -13 -53 -30 -21
-16 -45 -30 -53 -30 -8 0 -17 -7 -21 -15 -3 -8 -10 -15 -17 -15 -6 0 -28 -13
-49 -30 -21 -16 -42 -30 -48 -30 -5 0 -22 -17 -38 -38 -41 -55 -68 -82 -80
-82 -11 0 -94 -102 -94 -115 0 -3 -17 -29 -39 -58 -21 -29 -55 -88 -75 -132
-21 -44 -44 -92 -52 -107 -8 -14 -14 -33 -14 -41 0 -8 -7 -17 -15 -21 -8 -3
-15 -13 -15 -23 0 -20 -38 -100 -51 -109 -5 -3 -9 -15 -9 -27 0 -12 -7 -31
-15 -41 -8 -11 -15 -30 -15 -42 0 -12 -6 -27 -14 -33 -8 -6 -16 -24 -19 -39
-6 -33 -25 -88 -43 -125 -8 -16 -14 -43 -14 -62 0 -18 -7 -38 -15 -45 -10 -9
-15 -31 -15 -72 0 -34 -7 -72 -16 -90 -22 -43 -23 -137 -1 -168 9 -13 17 -31
17 -38 0 -8 10 -22 23 -33 21 -18 53 -18 748 -19 399 0 729 -3 733 -8 4 -4 24
-7 44 -7 l37 0 3 -198 c2 -181 4 -199 22 -217 20 -20 38 -20 1328 -20 l1309 0
22 24 c22 24 23 29 21 218 -1 106 -2 199 -1 206 1 16 33 15 57 -3 22 -17 139
-21 149 -5 4 7 259 10 732 10 l725 0 21 26 c11 15 29 43 39 62 22 45 24 134 3
152 -8 7 -15 27 -15 45 0 18 -6 38 -14 44 -8 7 -13 32 -13 65 0 33 -6 62 -17
77 -9 13 -16 35 -16 50 0 15 -7 32 -15 39 -8 7 -15 27 -15 45 0 18 -7 38 -15
45 -8 7 -15 23 -15 35 0 12 -7 28 -15 35 -8 7 -15 27 -15 45 0 18 -7 38 -15
45 -8 7 -15 23 -15 35 0 12 -7 28 -15 35 -8 7 -15 23 -15 35 0 12 -7 28 -15
35 -8 7 -15 19 -15 27 0 7 -7 16 -15 19 -9 4 -15 19 -15 39 0 18 -7 38 -15 45
-8 7 -15 20 -15 30 0 10 -7 23 -15 30 -8 7 -15 19 -15 27 0 8 -13 32 -30 53
-16 21 -30 41 -30 45 0 16 -100 136 -174 211 -93 92 -157 144 -179 144 -8 0
-20 7 -27 15 -7 8 -18 15 -25 15 -7 0 -15 7 -19 15 -3 8 -14 15 -24 15 -11 0
-25 7 -32 15 -7 8 -20 15 -30 15 -10 0 -23 7 -30 15 -7 8 -21 15 -31 15 -10 0
-22 6 -26 13 -12 18 -71 47 -98 47 -12 0 -28 7 -35 15 -7 8 -23 15 -35 15 -12
0 -28 7 -35 15 -7 8 -21 15 -30 15 -10 0 -31 6 -47 14 -41 20 -127 46 -154 46
-13 0 -33 7 -43 15 -12 9 -42 15 -73 15 -46 0 -53 2 -53 20 0 11 14 39 30 62
17 22 30 45 30 49 0 4 57 65 126 136 193 196 204 208 204 218 0 6 12 22 28 35
33 30 122 145 122 158 0 5 7 12 15 16 8 3 15 14 15 24 0 11 7 25 15 32 8 7 15
27 15 45 0 18 7 38 15 45 8 7 15 25 15 40 0 15 7 33 15 40 8 7 15 23 15 35 0
12 7 28 15 35 8 7 15 23 15 35 0 12 7 28 15 35 8 7 15 27 15 45 0 18 7 38 15
45 8 7 15 29 15 49 1 20 7 47 15 61 11 19 14 68 14 210 0 142 -3 191 -14 210
-8 14 -14 33 -15 42 0 16 -65 116 -104 160 -7 9 -17 24 -20 35 -3 10 -23 37
-44 59 -39 41 -72 108 -72 143 0 10 -7 24 -15 31 -8 7 -15 21 -15 32 0 11 -5
29 -12 41 -19 34 -47 120 -48 143 0 12 -7 27 -15 34 -8 7 -15 25 -15 40 0 15
-6 33 -14 39 -8 7 -16 33 -19 59 -4 48 -18 94 -43 145 -8 16 -14 39 -14 52 0
12 -7 28 -15 35 -8 7 -15 25 -15 40 0 15 -7 33 -15 40 -8 7 -15 20 -15 30 0
10 -7 23 -15 30 -8 7 -15 21 -15 31 0 10 -13 38 -30 62 -16 25 -30 54 -30 65
0 11 -7 25 -15 32 -8 7 -15 18 -15 24 0 6 -13 23 -29 39 -15 15 -37 44 -47 64
-10 20 -31 50 -46 67 -16 17 -28 36 -28 44 0 7 -7 15 -15 18 -8 4 -15 12 -15
19 0 7 -7 15 -15 19 -8 3 -15 11 -15 17 0 7 -21 35 -47 63 -27 29 -58 63 -70
76 -11 14 -45 48 -75 76 -29 28 -62 62 -74 75 -31 36 -75 72 -114 93 -19 10
-39 25 -43 32 -4 8 -19 14 -32 14 -14 0 -25 5 -25 10 0 6 -10 15 -22 20 -39
17 -111 60 -128 75 -9 8 -26 15 -38 15 -11 0 -23 4 -26 9 -11 17 -92 51 -122
51 -16 0 -38 7 -48 15 -11 8 -31 15 -45 15 -14 0 -35 7 -45 15 -11 8 -27 15
-37 15 -9 0 -22 7 -29 15 -7 8 -29 15 -49 15 -20 1 -47 7 -61 15 -19 11 -64
14 -180 14 -116 0 -161 -3 -180 -14z m305 -176 c22 -6 51 -13 65 -16 25 -5 69
-23 122 -50 14 -7 37 -13 51 -13 13 0 30 -7 37 -15 8 -9 29 -15 56 -15 23 0
45 -4 49 -9 3 -6 30 -21 60 -36 30 -14 55 -30 55 -35 0 -6 7 -10 15 -10 17 0
103 -50 156 -92 20 -15 42 -28 49 -28 14 0 80 -49 80 -60 0 -11 105 -116 124
-123 9 -4 19 -15 23 -24 4 -10 20 -31 36 -48 40 -41 177 -222 177 -234 0 -5
14 -25 30 -43 17 -18 30 -38 30 -45 0 -6 6 -16 13 -20 14 -9 77 -131 77 -149
0 -7 7 -17 15 -24 8 -7 15 -20 15 -30 0 -10 7 -23 15 -30 8 -7 15 -22 15 -34
0 -12 7 -31 15 -42 8 -10 15 -31 15 -45 0 -15 7 -32 15 -39 8 -7 15 -23 15
-35 0 -12 7 -28 15 -35 10 -8 15 -30 15 -64 0 -30 6 -60 15 -72 8 -10 15 -29
15 -40 0 -12 7 -27 15 -34 8 -7 15 -27 15 -45 0 -18 7 -38 15 -45 8 -7 15 -25
15 -40 0 -15 7 -33 15 -40 8 -7 15 -27 15 -45 0 -18 7 -38 15 -45 8 -7 15 -20
15 -30 0 -10 7 -23 15 -30 8 -7 15 -29 15 -50 0 -24 5 -40 15 -44 8 -3 15 -14
15 -24 0 -10 20 -38 45 -62 25 -24 45 -51 45 -60 0 -8 14 -28 30 -44 17 -16
30 -34 30 -39 0 -5 11 -22 25 -39 25 -29 25 -33 25 -200 0 -165 -7 -216 -36
-285 -8 -17 -14 -38 -14 -46 0 -19 -38 -105 -50 -112 -6 -3 -10 -19 -10 -34 0
-16 -7 -34 -15 -41 -8 -7 -15 -25 -15 -40 0 -15 -7 -33 -15 -40 -8 -7 -15 -23
-15 -35 0 -12 -7 -28 -15 -35 -8 -7 -15 -21 -15 -31 0 -11 -5 -19 -10 -19 -6
0 -14 -8 -17 -17 -12 -32 -142 -177 -326 -364 -65 -66 -122 -130 -128 -142
-15 -34 -35 -67 -48 -80 -6 -6 -11 -21 -11 -33 0 -12 -7 -27 -15 -34 -8 -7
-15 -23 -15 -35 0 -12 -7 -28 -15 -35 -19 -16 -19 -79 0 -104 8 -11 15 -28 15
-38 0 -23 36 -38 73 -31 15 3 42 -2 61 -11 19 -9 54 -16 79 -16 27 0 49 -6 57
-15 8 -9 30 -15 60 -15 30 0 52 -6 60 -15 7 -8 22 -15 34 -15 11 0 30 -7 40
-15 11 -8 30 -15 42 -15 12 0 24 -7 28 -15 3 -8 16 -15 28 -15 13 0 32 -7 42
-15 11 -8 32 -15 48 -15 15 0 28 -5 28 -10 0 -6 10 -15 23 -20 12 -6 29 -14
37 -19 8 -5 33 -17 55 -27 22 -11 56 -31 76 -46 20 -16 46 -28 57 -28 26 0
272 -241 272 -267 0 -11 13 -32 28 -49 39 -41 62 -80 62 -104 0 -11 7 -23 15
-26 8 -4 15 -12 15 -19 0 -18 39 -103 50 -110 6 -3 10 -17 10 -30 0 -12 7 -25
15 -29 9 -3 15 -18 15 -34 0 -16 7 -35 15 -42 8 -7 15 -25 15 -40 0 -15 7 -33
15 -40 8 -7 15 -22 15 -34 0 -12 7 -31 15 -42 8 -10 15 -31 15 -45 0 -15 7
-32 15 -39 8 -7 15 -22 15 -34 0 -12 6 -31 14 -41 8 -11 16 -45 18 -75 3 -30
15 -80 27 -110 11 -30 19 -60 17 -67 -4 -9 -185 -12 -733 -15 -603 -2 -732 -5
-749 -17 -19 -12 -23 -12 -43 8 -16 16 -21 33 -21 74 0 29 5 58 12 65 15 15
26 612 11 612 -5 0 -27 15 -49 34 -28 24 -53 36 -80 38 l-39 3 -5 105 -5 105
-84 3 c-46 2 -87 -1 -90 -7 -3 -5 -3 -51 0 -103 4 -63 3 -96 -5 -103 -6 -6
-63 -9 -137 -7 l-126 3 -22 44 c-12 24 -25 45 -29 47 -15 6 -69 85 -91 130
-13 27 -27 50 -32 54 -5 3 -9 14 -9 24 0 11 -11 36 -25 56 -14 20 -25 48 -25
61 0 31 -24 39 -68 23 -19 -7 -85 -16 -146 -21 -61 -5 -142 -13 -181 -19 -76
-12 -254 -5 -269 10 -19 19 -31 10 -47 -33 -27 -68 -28 -71 -38 -87 -5 -8 -12
-22 -15 -30 -3 -8 -11 -24 -18 -35 -25 -44 -29 -51 -39 -77 -6 -16 -14 -28
-17 -28 -4 0 -16 -19 -26 -43 -39 -84 5 -77 -493 -77 l-445 0 -41 -35 c-22
-19 -44 -35 -49 -35 -15 0 0 -656 16 -708 10 -29 -38 -58 -71 -43 -17 8 -226
11 -693 11 l-670 0 0 28 c0 16 7 37 15 48 8 10 15 37 15 60 0 22 7 49 15 60 8
10 15 37 15 60 0 22 7 49 15 60 8 10 15 28 15 39 0 11 7 29 15 39 8 11 15 30
15 42 0 12 7 27 15 34 8 7 15 23 15 37 0 13 7 31 15 39 8 9 15 26 15 38 0 13
7 29 15 36 8 7 15 18 15 25 0 7 7 18 15 25 8 7 15 23 15 35 0 12 7 28 15 35 8
7 15 20 15 29 0 10 7 26 15 37 8 10 15 27 15 37 0 10 7 20 15 23 8 4 15 15 15
26 0 11 19 45 43 76 23 31 50 71 59 88 41 74 261 264 306 264 6 0 12 4 12 9 0
14 68 51 95 51 12 0 25 7 29 15 3 8 12 15 19 15 8 0 20 7 27 15 7 8 25 15 40
15 15 0 33 7 40 15 7 8 23 15 35 15 12 0 28 7 35 15 7 8 22 15 34 15 12 0 31
7 42 15 10 8 31 15 45 15 14 0 34 7 45 15 10 8 33 15 50 15 16 0 35 5 42 12
10 10 80 22 234 41 51 7 58 22 58 117 0 66 -4 91 -15 100 -8 7 -15 20 -15 30
0 10 -7 23 -15 30 -8 7 -15 21 -15 32 0 32 -31 77 -92 138 -32 31 -58 62 -58
67 0 6 -37 46 -82 90 -207 198 -337 373 -338 454 0 9 -7 22 -15 29 -8 7 -15
23 -15 35 0 12 -7 28 -15 35 -8 7 -15 25 -15 39 0 15 -7 36 -15 47 -8 10 -15
26 -15 35 0 9 -7 19 -15 23 -10 3 -15 19 -15 44 0 21 -7 47 -15 58 -11 15 -14
59 -15 217 0 223 -1 219 88 313 17 19 32 37 32 40 0 7 58 84 74 99 25 22 46
66 46 93 0 16 7 35 15 42 8 7 15 27 15 45 0 18 7 38 15 45 8 7 15 26 15 42 0
16 6 31 15 34 9 4 15 19 15 39 0 18 7 38 15 45 8 7 15 25 15 39 0 15 7 36 15
47 8 10 15 35 15 55 0 20 7 42 15 49 8 7 15 27 15 45 0 18 7 38 15 45 8 7 15
29 15 50 0 24 5 40 15 44 9 3 15 18 15 39 0 19 7 40 15 47 8 7 15 21 15 32 0
10 7 21 15 24 8 4 15 16 15 28 0 11 7 30 15 40 8 11 15 26 15 34 0 8 14 31 30
52 17 21 30 46 30 56 0 11 20 41 45 69 25 27 45 56 45 63 0 17 84 128 122 162
16 13 28 30 28 37 0 21 279 292 308 299 15 4 33 12 41 17 17 14 50 33 78 46
11 5 24 15 28 20 3 6 15 11 26 11 11 0 22 7 25 15 4 8 12 15 19 15 7 0 18 7
25 15 7 8 23 15 35 15 12 0 28 7 35 15 7 9 29 15 52 15 25 0 41 5 44 15 4 9
19 15 39 15 18 0 38 7 45 15 7 8 22 15 34 15 12 0 31 7 42 15 10 8 35 15 54
15 19 0 46 7 60 14 31 17 226 21 285 5z m295 -4590 c11 -22 20 -44 20 -49 0
-5 14 -32 30 -58 17 -27 30 -55 30 -61 0 -13 5 -19 63 -82 35 -39 47 -69 28
-69 -5 0 -129 -2 -277 -5 -335 -6 -686 5 -691 22 -2 6 11 29 29 50 18 21 41
56 52 78 10 22 22 47 27 55 14 27 46 94 52 113 6 15 20 17 114 17 59 0 146 5
193 11 110 14 270 25 292 21 9 -2 26 -22 38 -43z m769 -646 c0 -115 -5 -242
-11 -283 -6 -41 -13 -217 -17 -390 l-6 -315 -1227 -2 -1228 -3 -2 213 c-2 253
-4 288 -17 437 -5 63 -10 213 -10 333 l-1 217 1260 0 1260 0 -1 -207z"/>
<path d="M4435 7295 c-16 -8 -49 -14 -71 -15 -23 0 -55 -7 -70 -15 -16 -8 -38
-15 -50 -15 -11 0 -29 -7 -40 -15 -10 -8 -26 -15 -35 -15 -9 0 -22 -7 -29 -15
-7 -8 -23 -15 -35 -15 -12 0 -28 -7 -35 -15 -7 -8 -18 -15 -25 -15 -16 0 -176
-117 -188 -137 -4 -7 -19 -13 -32 -13 -14 0 -25 -4 -25 -9 0 -4 -19 -21 -42
-37 -44 -30 -103 -80 -148 -125 -70 -70 -140 -148 -140 -154 0 -4 -13 -27 -30
-52 -23 -33 -30 -55 -30 -92 0 -26 -5 -52 -12 -59 -13 -13 -23 -68 -43 -240
-8 -68 -19 -131 -25 -142 -13 -25 -13 -493 0 -506 5 -5 13 -39 16 -74 4 -36
13 -74 20 -85 8 -11 14 -38 14 -60 0 -22 7 -49 15 -59 8 -11 15 -28 15 -37 0
-10 7 -31 15 -48 8 -17 22 -45 30 -62 8 -17 15 -39 15 -49 0 -10 24 -64 53
-119 28 -56 58 -112 65 -126 7 -14 17 -25 21 -25 5 0 12 -11 15 -24 3 -13 24
-43 46 -66 22 -23 40 -49 40 -59 0 -9 8 -24 18 -32 9 -9 42 -45 72 -80 95
-111 213 -218 241 -219 8 0 42 -13 74 -30 32 -16 63 -30 68 -30 6 0 39 -13 74
-30 l63 -30 243 0 c197 1 246 3 261 15 11 8 36 15 57 15 20 0 42 7 49 15 7 8
25 15 40 15 15 0 33 7 40 15 7 8 23 15 35 15 12 0 28 7 35 15 7 8 18 15 25 15
7 0 15 7 19 15 3 8 11 15 18 15 29 0 167 135 261 255 25 33 60 76 76 95 17 19
31 39 31 44 0 4 14 25 30 46 17 21 30 44 30 51 1 8 12 32 25 54 49 79 65 115
65 138 0 14 7 30 15 37 8 7 15 25 15 40 0 15 7 33 15 40 8 7 15 27 15 45 0 18
7 38 15 45 8 7 15 22 15 34 1 11 7 32 15 46 8 14 14 41 15 61 0 19 7 44 15 55
12 16 14 78 14 379 0 301 -2 363 -14 379 -11 14 -15 45 -15 103 0 65 -3 85
-15 89 -8 4 -15 18 -15 33 0 15 -7 36 -15 47 -8 10 -15 38 -15 60 0 24 -6 47
-15 54 -8 7 -15 20 -15 29 0 10 -13 30 -30 46 -16 16 -30 32 -30 37 0 14 -134
142 -183 175 -27 18 -60 46 -75 63 -15 16 -35 30 -45 30 -19 0 -135 83 -150
107 -4 7 -17 13 -28 13 -11 0 -22 7 -25 15 -4 8 -14 15 -24 15 -10 0 -23 7
-30 15 -7 8 -20 15 -29 15 -10 0 -26 7 -37 15 -10 8 -26 15 -35 15 -9 0 -19 7
-23 15 -3 8 -17 15 -31 15 -14 0 -42 7 -62 15 -19 8 -57 15 -83 15 -30 0 -52
6 -60 15 -7 8 -27 15 -46 15 -18 0 -39 -7 -48 -15 -8 -8 -26 -15 -39 -15 -14
0 -30 7 -37 15 -15 18 -65 18 -105 0z m260 -186 c5 -5 32 -9 60 -9 28 0 58 -7
69 -15 11 -8 30 -15 42 -15 12 0 27 -7 34 -15 7 -8 21 -15 31 -15 10 0 21 -4
24 -10 3 -5 28 -20 55 -32 28 -13 50 -26 50 -30 0 -3 17 -16 38 -29 20 -12 42
-27 47 -33 6 -6 26 -19 45 -29 20 -10 53 -34 74 -53 21 -20 57 -48 80 -62 68
-45 196 -183 196 -211 0 -10 14 -30 30 -46 19 -18 30 -39 30 -56 0 -14 7 -32
15 -39 12 -10 15 -28 13 -64 -2 -42 -7 -51 -23 -55 -11 -2 -36 -16 -56 -32
-20 -16 -43 -29 -50 -29 -8 0 -37 -16 -66 -36 -37 -26 -58 -34 -73 -29 -20 6
-21 11 -15 81 l7 74 -58 56 -59 57 -233 -2 c-214 0 -236 -2 -260 -20 -15 -11
-43 -23 -62 -28 l-35 -9 -5 -130 -5 -129 -60 0 -60 0 0 110 c0 114 -12 155
-45 155 -8 0 -32 11 -52 25 -37 25 -38 25 -268 25 -136 0 -239 -4 -250 -10
-10 -6 -34 -24 -52 -40 -18 -17 -36 -30 -41 -30 -5 0 -8 -37 -7 -82 1 -46 2
-89 1 -95 -2 -19 -35 -15 -64 7 -14 11 -30 20 -35 20 -5 0 -15 7 -22 15 -7 8
-23 15 -35 15 -13 0 -25 4 -27 9 -1 5 -28 22 -58 38 -58 31 -73 59 -45 83 8 7
15 25 15 40 0 31 27 90 48 103 6 4 12 17 12 28 0 11 7 22 15 25 8 4 15 11 15
18 0 21 234 241 283 266 26 13 47 27 47 32 0 4 13 14 29 23 17 8 47 31 68 50
21 19 43 35 49 35 6 0 17 7 24 15 7 8 23 15 35 15 12 0 28 7 35 15 7 8 20 15
30 15 10 0 23 7 30 15 7 8 20 15 29 15 9 0 26 6 37 14 11 8 46 16 79 19 33 3
80 10 105 16 50 11 180 5 195 -10z m-332 -828 c4 0 7 -100 7 -221 l0 -219
-202 -3 c-126 -2 -207 1 -213 7 -6 6 -9 91 -7 226 l3 215 202 -2 c111 -1 205
-2 210 -3z m835 -4 c9 -6 12 -62 12 -223 l0 -214 -213 0 -212 0 1 223 c1 122
2 222 3 222 13 6 400 -3 409 -8z m-1663 -147 c10 -11 22 -20 27 -20 4 0 27
-13 50 -30 22 -16 49 -30 58 -30 10 0 23 -7 30 -15 7 -8 21 -15 32 -15 10 0
30 -7 43 -16 24 -15 25 -21 25 -111 0 -52 -5 -103 -10 -113 -8 -14 -6 -29 4
-55 l15 -36 228 4 c125 2 269 9 318 15 67 8 98 8 122 0 18 -7 36 -8 40 -4 4 4
6 37 3 74 -2 37 -4 96 -5 132 l0 65 39 3 c22 2 50 1 63 -2 22 -6 23 -10 23
-97 0 -68 -4 -98 -17 -120 -16 -27 -16 -30 -1 -46 15 -14 23 -15 55 -5 27 8
62 8 123 0 47 -5 183 -12 302 -15 276 -5 261 -14 249 154 -9 125 -1 157 37
169 9 3 29 12 44 20 14 8 35 14 47 14 11 0 24 6 28 13 10 15 70 47 88 47 8 0
19 9 25 21 6 11 19 19 27 17 14 -3 16 -37 14 -317 -2 -254 -5 -319 -17 -335
-8 -11 -14 -37 -14 -57 0 -20 -7 -42 -15 -49 -8 -7 -15 -27 -15 -44 0 -18 -7
-41 -15 -52 -8 -10 -15 -31 -15 -45 0 -15 -7 -32 -15 -39 -8 -7 -15 -25 -15
-40 0 -15 -7 -33 -15 -40 -8 -7 -15 -22 -15 -34 0 -12 -5 -27 -11 -33 -13 -13
-22 -29 -59 -99 -14 -26 -35 -59 -47 -72 -12 -13 -25 -34 -29 -46 -4 -11 -15
-27 -26 -34 -10 -7 -34 -38 -53 -68 -38 -60 -200 -224 -220 -224 -7 0 -18 -7
-25 -15 -7 -8 -20 -15 -30 -15 -10 0 -23 -7 -30 -15 -7 -8 -25 -15 -40 -15
-15 0 -33 -7 -40 -15 -7 -8 -24 -15 -39 -15 -14 0 -35 -7 -45 -15 -29 -22
-488 -22 -506 0 -7 8 -20 15 -29 15 -10 0 -26 7 -37 15 -10 8 -29 15 -40 15
-12 0 -27 7 -34 15 -7 8 -18 15 -24 15 -43 0 -226 151 -226 187 0 7 -4 13 -9
13 -5 0 -26 26 -47 58 -20 31 -49 69 -63 83 -27 26 -43 49 -61 84 -6 11 -19
34 -30 50 -10 17 -30 53 -44 82 -15 28 -31 55 -36 58 -6 3 -10 19 -10 34 0 16
-7 34 -15 41 -8 7 -15 25 -15 40 0 15 -7 33 -15 40 -8 7 -15 23 -15 35 0 12
-7 28 -15 35 -9 7 -15 29 -15 54 0 23 -7 51 -15 62 -8 10 -15 31 -15 46 0 15
-7 53 -15 85 -20 76 -22 558 -2 566 23 10 34 7 52 -13z"/>
<path d="M4520 3095 c0 -143 -7 -139 227 -132 156 5 179 7 190 23 7 10 11 25
8 32 -3 8 -5 52 -5 98 l0 84 -210 0 -210 0 0 -105z m358 -12 l-3 -58 -147 -3
-148 -3 0 61 0 60 150 0 151 0 -3 -57z"/>
<path d="M3614 2663 c-22 -100 -36 -113 -69 -63 -27 40 -63 54 -101 40 -32
-13 -64 -43 -64 -62 0 -7 -7 -22 -15 -32 -25 -33 -19 -81 15 -115 39 -39 67
-47 89 -27 10 9 25 16 33 16 9 0 21 7 28 15 19 23 48 18 89 -14 53 -42 73 -50
99 -40 46 17 16 63 -64 98 -24 10 -38 37 -24 46 13 8 50 89 50 112 0 21 -29
53 -48 53 -6 0 -14 -12 -18 -27z m-104 -118 c11 -21 11 -27 -4 -44 -23 -25
-51 -32 -71 -17 -15 11 -16 15 -1 49 18 45 55 51 76 12z"/>
<path d="M4270 2583 c-19 -8 -48 -21 -63 -29 -16 -8 -33 -14 -38 -14 -5 0 -28
-13 -51 -30 -22 -16 -49 -30 -59 -30 -22 0 -79 -68 -79 -95 0 -11 -8 -31 -17
-45 -14 -19 -17 -49 -17 -154 -1 -138 -2 -134 59 -245 22 -39 108 -121 127
-121 10 0 21 -7 24 -15 4 -8 14 -15 23 -15 9 0 22 -5 29 -12 6 -6 30 -15 54
-19 24 -4 61 -12 83 -18 52 -14 338 -14 351 -1 6 6 34 13 62 17 29 3 57 12 63
19 6 8 22 14 34 14 12 0 28 7 35 15 7 8 18 15 25 15 22 0 114 111 141 170 4 8
14 23 23 34 23 26 20 290 -4 315 -8 10 -15 26 -15 37 0 11 -5 25 -11 31 -6 6
-16 21 -23 34 -10 21 -23 30 -56 43 -8 4 -28 15 -45 26 -16 11 -37 22 -45 26
-8 3 -27 12 -42 20 -14 8 -34 14 -45 14 -10 0 -27 7 -37 15 -29 22 -436 20
-486 -2z m464 -118 c11 -8 30 -15 42 -15 12 0 27 -7 34 -15 7 -8 19 -15 27
-15 22 0 102 -63 103 -82 0 -9 7 -23 15 -32 12 -11 16 -42 17 -125 2 -91 0
-113 -15 -129 -9 -10 -17 -23 -17 -28 0 -18 -100 -114 -119 -114 -10 0 -24 -7
-31 -15 -7 -8 -29 -15 -49 -15 -20 0 -45 -7 -55 -15 -27 -21 -284 -20 -341 0
-22 8 -50 15 -63 15 -43 0 -182 106 -182 138 0 8 -8 24 -17 35 -15 16 -18 37
-17 126 2 136 23 182 103 222 29 15 58 32 64 38 6 6 20 11 32 11 11 0 29 7 39
15 29 22 402 21 430 0z"/>
<path d="M4395 2403 c-16 -9 -37 -20 -45 -25 -8 -4 -25 -12 -37 -18 -24 -10
-98 -99 -108 -130 -7 -21 10 -60 26 -60 22 0 49 22 49 40 0 25 95 120 120 120
10 0 22 5 25 10 3 6 23 10 44 10 44 0 66 19 56 50 -5 16 -15 20 -53 20 -26 0
-60 -8 -77 -17z"/>
</g>
</svg>
